# xmcd
#
# Track frame offsets:
#	150
#	18634
#	35725
#	50424
#	66576
#	84596
#	97699
#	113398
#	130235
#	145695
#	160727
#
# Disc length: 2369 seconds
#
# Revision: 2
# Processed by: cddbd v1.5.2PL0 Copyright (c) Steve Scherf et al.
# Submitted via: audiograbber 1.83.01
#
DISCID=8b093f0b
DTITLE=Various Artist - CDX Volume 669 (October 15, 2018)
DYEAR=2018
DGENRE=Country
TTITLE0=Josh Gracin - Good For You
TTITLE1=Lauren Alaina - Ladies In The '90s
TTITLE2=Kelsea Ballerini - Miss Me More
TTITLE3=Tim McGraw - Neon Church
TTITLE4=Luke Bryan - What Makes You Country
TTITLE5=Sugarcane Jane - Campfire
TTITLE6=Leslie Ann - Dream Is You
TTITLE7=Elvis Carden - Lay Me Down (Draped In The Redl, White and Blue)
TTITLE8=Rusty Rierson - Life's Too Short
TTITLE9=LeFroy - No Rain
TTITLE10=Daniel Smith - This Side Of The Dirt
EXTD=
EXTT0=
EXTT1=
EXTT2=
EXTT3=
EXTT4=
EXTT5=
EXTT6=
EXTT7=
EXTT8=
EXTT9=
EXTT10=
PLAYORDER=
